<svg xmlns="http://www.w3.org/2000/svg" fill="none" viewBox="0 0 24 24" stroke-width="1.5" stroke="currentColor" class="size-6">
  <path stroke-linecap="round" stroke-linejoin="round" d="M9.594 3.94c.09-.542.56-.94 1.11-.94h2.593c.55 0 1.02.398 1.11.94l.213 1.281c.063.374.313.686.645.87.074.04.147.083.22.127.325.196.72.257 1.075.124l1.217-.456a1.125 1.125 0 0 1 1.37.49l1.296 1.143c.214.2.441.353.689.428.223.074.43.137.655.137a.75.75 0 0 1 0 1.5c-.225 0-.432.063-.656.137a2.25 2.25 0 0 1-.689.428l-1.297 1.143a1.125 1.125 0 0 1-1.37.49l-1.217-.456c-.355-.133-.75-.072-1.076.124a6.47 6.47 0 0 1-.22.128c-.331.183-.581.495-.644.869l-.213 1.281c-.09.543-.56.94-1.11.94h-2.594c-.55 0-1.019-.398-1.11-.94l-.213-1.281c-.062-.374-.312-.686-.644-.87a6.52 6.52 0 0 1-.22-.127c-.325-.196-.72-.257-1.076-.124l-1.217.456a1.125 1.125 0 0 1-1.369-.49l-1.297-1.143a2.25 2.25 0 0 1-.69-.428c-.223-.074-.43-.137-.655-.137a.75.75 0 0 1 0-1.5c.224 0 .431-.063.655-.137a2.25 2.25 0 0 1 .69-.428l1.297-1.143a1.125 1.125 0 0 1 1.37-.49l1.217.456c.355.133.75.072 1.075-.124.072-.044.146-.086.22-.128.332-.183.582-.495.644-.869l.214-1.28Z" />
  <path stroke-linecap="round" stroke-linejoin="round" d="M15 12a3 3 0 1 1-6 0 3 3 0 0 1 6 0Z" />
</svg>